<?xml version="1.0" standalone="no"?>
<!DOCTYPE svg PUBLIC "-//W3C//DTD SVG 20010904//EN"
 "http://www.w3.org/TR/2001/REC-SVG-20010904/DTD/svg10.dtd">
<svg version="1.0" xmlns="http://www.w3.org/2000/svg"
 width="200.000000pt" height="200.000000pt" viewBox="0 0 200.000000 200.000000"
 preserveAspectRatio="xMidYMid meet">

<g transform="translate(0.000000,200.000000) scale(0.100000,-0.100000)"
fill="#FF9902" stroke="none">
<path d="M865 1856 c-171 -56 -300 -195 -339 -364 l-13 -57 -210 -5 c-207 -5
-212 -6 -237 -29 -70 -66 -45 -175 47 -210 15 -6 27 -17 27 -26 0 -8 27 -124
59 -257 33 -134 66 -277 75 -318 35 -170 104 -442 114 -452 10 -10 1205 -14
1222 -3 5 3 18 47 30 98 12 50 36 155 55 232 18 77 54 230 80 340 91 383 90
380 111 383 27 6 64 42 81 80 17 42 4 98 -33 133 -25 23 -30 24 -237 29 l-210
5 -13 57 c-33 145 -135 271 -271 336 -74 35 -84 37 -188 39 -71 2 -124 -2
-150 -11z m267 -91 c65 -23 144 -82 184 -137 40 -53 74 -134 74 -173 l0 -25
-391 0 -392 0 6 41 c18 137 158 278 307 309 56 11 155 4 212 -15z m746 -437
c16 -16 15 -23 -4 -42 -14 -14 -107 -16 -874 -16 -767 0 -860 2 -874 16 -19
19 -20 26 -4 42 17 17 1739 17 1756 0z m-1208 -248 l0 -100 -198 0 -199 0 -16
78 c-10 42 -20 87 -23 100 l-6 22 221 0 221 0 0 -100z m570 0 l0 -100 -235 0
-235 0 0 100 0 100 235 0 235 0 0 -100z m526 78 c-3 -13 -14 -58 -23 -100
l-18 -78 -197 0 -198 0 0 100 0 100 221 0 221 0 -6 -22z"/>
</g>
</svg>
